<svg xmlns="http://www.w3.org/2000/svg" viewBox="0 0 1078.99 874.22"><defs><style>.cls-1{isolation:isolate;}.cls-2{fill:#101414;}.cls-3{opacity:0.85;mix-blend-mode:multiply;}</style></defs><title>Untitled-1</title><g class="cls-1"><g id="Layer_1" data-name="Layer 1"><path class="cls-2" d="M570.09,976.69H72.54a61.81,61.81,0,0,1,0-123.62h70.3a19.47,19.47,0,0,0,19.45-19.44V245.53a19.48,19.48,0,0,0-19.45-19.45H62.71a61.81,61.81,0,0,1,0-123.61H982.78A97.32,97.32,0,0,1,1080,199.68V501.36a58.4,58.4,0,0,1-58.33,58.33h-52a58.39,58.39,0,0,1-58.33-58.33V462.68c0-130.46-106.14-236.6-236.6-236.6h-175a19.48,19.48,0,0,0-19.45,19.45v214.9a19.47,19.47,0,0,0,19.45,19.44H535a75.2,75.2,0,0,0,75.11-75.11v-9.14a71.38,71.38,0,0,1,71.29-71.3h12.56a71.38,71.38,0,0,1,71.29,71.3V674.23a71.37,71.37,0,0,1-71.29,71.29H681.38a71.37,71.37,0,0,1-71.29-71.29v-9.14A75.19,75.19,0,0,0,535,590h-35.2a19.47,19.47,0,0,0-19.45,19.44V833.63a19.47,19.47,0,0,0,19.45,19.44h70.31a61.81,61.81,0,0,1,0,123.62ZM72.54,892a22.92,22.92,0,0,0,0,45.84H570.09a22.92,22.92,0,0,0,0-45.84H499.78a58.4,58.4,0,0,1-58.33-58.33V609.42a58.4,58.4,0,0,1,58.33-58.33H535a114.13,114.13,0,0,1,114,114v9.14a32.44,32.44,0,0,0,32.4,32.41h12.56a32.45,32.45,0,0,0,32.4-32.41V395.62a32.45,32.45,0,0,0-32.4-32.41H681.38A32.44,32.44,0,0,0,649,395.62v9.14a114.13,114.13,0,0,1-114,114h-35.2a58.4,58.4,0,0,1-58.33-58.33V245.53a58.4,58.4,0,0,1,58.33-58.33h175c151.9,0,275.48,123.58,275.48,275.48v38.68a19.46,19.46,0,0,0,19.45,19.44h52a19.46,19.46,0,0,0,19.44-19.44V199.68a58.39,58.39,0,0,0-58.33-58.33H62.71a22.93,22.93,0,0,0,0,45.85h80.13a58.4,58.4,0,0,1,58.33,58.33v588.1A58.4,58.4,0,0,1,142.84,892Z" transform="translate(-1.01 -102.47)"/><g class="cls-3"><path d="M649,680.71a32.44,32.44,0,0,0,32.4,32.41h12.56a32.45,32.45,0,0,0,32.4-32.41v-6.48a32.45,32.45,0,0,1-32.4,32.41H681.38A32.44,32.44,0,0,1,649,674.23Z" transform="translate(-1.01 -102.47)"/><path d="M535,557.57a114.13,114.13,0,0,1,114,114v-6.48a114.13,114.13,0,0,0-114-114h-35.2a58.4,58.4,0,0,0-58.33,58.33v6.48a58.4,58.4,0,0,1,58.33-58.33Z" transform="translate(-1.01 -102.47)"/><path d="M969.69,527.28h52a19.46,19.46,0,0,0,19.44-19.44v-6.48a19.46,19.46,0,0,1-19.44,19.44h-52a19.46,19.46,0,0,1-19.45-19.44v6.48A19.46,19.46,0,0,0,969.69,527.28Z" transform="translate(-1.01 -102.47)"/><path d="M72.54,859.55h70.3a19.47,19.47,0,0,0,19.45-19.44v-6.48a19.47,19.47,0,0,1-19.45,19.44H72.54A61.81,61.81,0,0,0,10.84,915c0,1.09.1,2.15.16,3.23A61.76,61.76,0,0,1,72.54,859.55Z" transform="translate(-1.01 -102.47)"/><path d="M950.24,462.68c0-151.9-123.58-275.48-275.48-275.48h-175a58.4,58.4,0,0,0-58.33,58.33V252a58.4,58.4,0,0,1,58.33-58.33h175c151.9,0,275.48,123.58,275.48,275.48Z" transform="translate(-1.01 -102.47)"/><path d="M50.05,918a22.36,22.36,0,0,0,22.49,26.24H570.09a22.83,22.83,0,0,0,22.81-22.81,23.23,23.23,0,0,0-.32-3.26,22.78,22.78,0,0,1-22.49,19.59H72.54A22.78,22.78,0,0,1,50.05,918Z" transform="translate(-1.01 -102.47)"/><path d="M982.78,102.47H62.71A61.81,61.81,0,0,0,1,164.38c0,1.09.11,2.16.16,3.24A61.76,61.76,0,0,1,62.71,109H982.78A97.32,97.32,0,0,1,1080,206.16v-6.48A97.32,97.32,0,0,0,982.78,102.47Z" transform="translate(-1.01 -102.47)"/><path d="M693.94,324.32H681.38a71.38,71.38,0,0,0-71.29,71.3v6.48a71.37,71.37,0,0,1,71.29-71.29h12.56a71.37,71.37,0,0,1,71.29,71.29v-6.48A71.38,71.38,0,0,0,693.94,324.32Z" transform="translate(-1.01 -102.47)"/><path d="M570.09,853.07H499.78a19.47,19.47,0,0,1-19.45-19.44v6.48a19.47,19.47,0,0,0,19.45,19.44h70.31A61.72,61.72,0,0,1,631.62,918c.06-1.08.17-2.15.17-3.25A61.77,61.77,0,0,0,570.09,853.07Z" transform="translate(-1.01 -102.47)"/><path d="M535,479.87h-35.2a19.47,19.47,0,0,1-19.45-19.44v6.48a19.47,19.47,0,0,0,19.45,19.44H535a75.2,75.2,0,0,0,75.11-75.11v-6.48A75.2,75.2,0,0,1,535,479.87Z" transform="translate(-1.01 -102.47)"/><path d="M62.71,193.68h80.13A58.4,58.4,0,0,1,201.17,252v-6.48a58.4,58.4,0,0,0-58.33-58.33H62.71a22.78,22.78,0,0,1-22.49-19.77,22.43,22.43,0,0,0,22.49,26.25Z" transform="translate(-1.01 -102.47)"/></g></g></g></svg>