<svg id="Layer_1" data-name="Layer 1" xmlns="http://www.w3.org/2000/svg" viewBox="0 0 80 40">
  <defs>
    <style>
      .cls-1,
      .cls-2 {
        fill: #fff;
      }
      
      .cls-1 {
        stroke: #fff;
        stroke-width: 2px;
      }
      
      .cls-1,
      .cls-2,
      .cls-3 {
        stroke-miterlimit: 10;
      }
      
      .cls-2,
      .cls-3 {
        stroke: #000;
      }
      
      .cls-3{
        fill: none;
        stroke-linecap: round;
      }
    </style>
  </defs>
  
  <path class="cls-1" d="M40,11.92c-8.43,0-16.42.14-24.92.53a2,2,0,0,0-1.63,1l-2.32,3.87a1.82,1.82,0,0,0-.2.45L9.22,26.37a1,1,0,0,0,.92,1.2c8.9.5,20.22.62,29.86.62s21-.12,29.86-.62a1,1,0,0,0,.92-1.2l-1.71-8.63a1.82,1.82,0,0,0-.2-.45l-2.32-3.87a2,2,0,0,0-1.63-1C56.42,12.06,48.43,11.92,40,11.92Z"/>
  <path id="test" class="cls-2" d="M40,11.92c-8.43,0-16.42.14-24.92.53a2,2,0,0,0-1.63,1l-2.32,3.87a1.82,1.82,0,0,0-.2.45L9.22,26.37a1,1,0,0,0,.92,1.2c8.9.5,20.22.62,29.86.62s21-.12,29.86-.62a1,1,0,0,0,.92-1.2l-1.71-8.63a1.82,1.82,0,0,0-.2-.45l-2.32-3.87a2,2,0,0,0-1.63-1C56.42,12.06,48.43,11.92,40,11.92Z"/>
  <path class="cls-3" d="M14,17.61c8.11.64,21,.78,26,.78s17.89-.14,26-.78"/>

  <!-- <animate xlink:href="test"
    attributeName="d"
    from="M40,11.92c-8.43,0-16.42.14-24.92.53a2,2,0,0,0-1.63,1l-2.32,3.87a1.82,1.82,0,0,0-.2.45L9.22,26.37a1,1,0,0,0,.92,1.2c8.9.5,20.22.62,29.86.62s21-.12,29.86-.62a1,1,0,0,0,.92-1.2l-1.71-8.63a1.82,1.82,0,0,0-.2-.45l-2.32-3.87a2,2,0,0,0-1.63-1C56.42,12.06,48.43,11.92,40,11.92Z"
    to="M13.45,19.42l-2.32,3.87a1.82,1.82,0,0,0-.2.45l-.76,3.83c8.9.5,20.2.62,29.83.62s20.93-.12,29.83-.62l-.76-3.83a1.82,1.82,0,0,0-.2-.45l-2.32-3.87a2,2,0,0,0-1.63-1c-8.5-.39-16.49-.53-24.92-.53s-16.42.14-24.92.53A2,2,0,0,0,13.45,19.42Z"
    dur="1s"
    begin="2s"
    fill="freeze"/> -->
</svg>