<svg id="Layer_1" data-name="Layer 1" xmlns="http://www.w3.org/2000/svg" viewBox="0 0 80 40"><defs><style>.cls-1,.cls-3{fill:#fff;}.cls-1,.cls-2{stroke:#fff;stroke-width:2px;}.cls-1,.cls-2,.cls-3,.cls-4{stroke-miterlimit:10;}.cls-2,.cls-4{fill:none;stroke-linecap:round;}.cls-3,.cls-4{stroke:#000;}</style></defs><title>Artboard 1 copy</title><path class="cls-1" d="M13.45,19.42l-2.32,3.87a1.82,1.82,0,0,0-.2.45l-.76,3.83c8.9.5,20.2.62,29.83.62s20.93-.12,29.83-.62l-.76-3.83a1.82,1.82,0,0,0-.2-.45l-2.32-3.87a2,2,0,0,0-1.63-1c-8.5-.39-16.49-.53-24.92-.53s-16.42.14-24.92.53A2,2,0,0,0,13.45,19.42Z"/><line class="cls-2" x1="55.98" y1="14.63" x2="54.76" y2="10.08"/><line class="cls-2" x1="58.42" y1="14.63" x2="59.64" y2="10.08"/><line class="cls-2" x1="60.53" y1="15.85" x2="63.86" y2="12.52"/><path class="cls-3" d="M13.45,19.42l-2.32,3.87a1.82,1.82,0,0,0-.2.45l-.76,3.83c8.9.5,20.2.62,29.83.62s20.93-.12,29.83-.62l-.76-3.83a1.82,1.82,0,0,0-.2-.45l-2.32-3.87a2,2,0,0,0-1.63-1c-8.5-.39-16.49-.53-24.92-.53s-16.42.14-24.92.53A2,2,0,0,0,13.45,19.42Z"/><path class="cls-4" d="M14,23.61c8.11.64,21,.78,26,.78s17.89-.14,26-.78"/><line class="cls-4" x1="55.98" y1="14.63" x2="54.76" y2="10.08"/><line class="cls-4" x1="58.42" y1="14.63" x2="59.64" y2="10.08"/><line class="cls-4" x1="60.53" y1="15.85" x2="63.86" y2="12.52"/></svg>